<svg id="Слой_1" data-name="Слой 1" xmlns="http://www.w3.org/2000/svg" viewBox="0 0 36 36"><defs><style>.cls-1{fill:none;}.cls-2{fill:#fff;}</style></defs><title>Icon desmark</title><path class="cls-1" d="M18,11.5c-1.63,0-3,1.83-3,4s1.37,4,3,4,3-1.83,3-4S19.63,11.5,18,11.5Z"/><path class="cls-2" d="M14,24.89v0.67A2.82,2.82,0,0,0,14,26H24.5c0.55,0,.5-0.45.5-1V24.5a6.19,6.19,0,0,0-3.66-5.7,6.38,6.38,0,0,0,1-3.3c0-3-2-5.5-4.44-5.5s-4.47,2.46-4.47,5.5a6.31,6.31,0,0,0,.92,3.3,7,7,0,0,0-3.11,2.83,2.4,2.4,0,0,1,1.12,1.1,5.5,5.5,0,0,1,3-2.74A4,4,0,0,0,18,21a3.74,3.74,0,0,0,2.59-.76A5,5,0,0,1,24,24.72H14m4-5.23c-1.63,0-3-1.83-3-4s1.37-4,3-4,3,1.83,3,4S19.63,19.5,18,19.5Z"/><path class="cls-2" d="M10,25H8v1h2v2h1V25.85A1.76,1.76,0,0,1,10,25V24.5a1.91,1.91,0,0,1,.85-1.5H10v2Z"/><path class="cls-2" d="M10,25a1.76,1.76,0,0,0,1,.85V26h2V25H11V23H10.85A1.91,1.91,0,0,0,10,24.5V25Z"/></svg>