<svg id="Слой_1" data-name="Слой 1" xmlns="http://www.w3.org/2000/svg" viewBox="0 0 36 36"><defs><style>.cls-1{fill:#6bc9d2;fill-rule:evenodd;}</style></defs><title>Icon desmark</title><path class="cls-1" d="M23.75,26H12.25a1,1,0,0,1-1-1V14.5a1,1,0,0,1,1-1H15A0.75,0.75,0,1,1,15,15H12.75v9.5h10.5V15H21a0.75,0.75,0,1,1,0-1.5h2.75a1,1,0,0,1,1,1V25A1,1,0,0,1,23.75,26Zm-2.5-7.75a0.75,0.75,0,0,1-.22.53l-2.5,2.5a0.75,0.75,0,0,1-1.06,0L15,18.78A0.75,0.75,0,1,1,16,17.72l1.22,1.22V10.75a0.75,0.75,0,1,1,1.5,0v8.19L20,17.72A0.75,0.75,0,0,1,21.25,18.25Z"/></svg>