<svg id="Слой_1" data-name="Слой 1" xmlns="http://www.w3.org/2000/svg" viewBox="0 0 18 18"><defs><style>.cls-1{fill:#fff;opacity:0.5;}</style></defs><title>Icon desmark</title><path class="cls-1" d="M3,1H15A2,2,0,0,1,17,3.05V14.95A2,2,0,0,1,15,17H3A2,2,0,0,1,1,14.95V3.05A2,2,0,0,1,3,1H3Zm9.65,1.78A0.72,0.72,0,0,0,12,3.5V5.22a0.72,0.72,0,0,0,.72.72h1.82a0.72,0.72,0,0,0,.72-0.72V3.5a0.72,0.72,0,0,0-.72-0.72H12.67Zm2.55,5H13.81A4.66,4.66,0,0,1,14,9.14,4.91,4.91,0,0,1,9,14,4.91,4.91,0,0,1,4,9.14a4.65,4.65,0,0,1,.21-1.37H2.75v6.76a0.64,0.64,0,0,0,.64.64h11.2a0.64,0.64,0,0,0,.64-0.64V7.77h0ZM9,5.85A3.17,3.17,0,0,0,5.79,9,3.17,3.17,0,0,0,9,12.08,3.17,3.17,0,0,0,12.25,9,3.17,3.17,0,0,0,9,5.85Z"/></svg>