<svg id="Слой_1" data-name="Слой 1" xmlns="http://www.w3.org/2000/svg" viewBox="0 0 36 36"><defs><style>.cls-1{fill:#6bc9d2;}</style></defs><title>Icon desmark</title><path class="cls-1" d="M24.15,22.15c-1-.83-1.65-3-1.65-5.65a4.5,4.5,0,0,0-3-4.25,1.49,1.49,0,0,0-3,0,4.5,4.5,0,0,0-3,4.25c0,2.6-.69,4.81-1.65,5.65A2.45,2.45,0,0,0,11,24a1.5,1.5,0,0,0,1.5,1.5h4a1.5,1.5,0,1,0,3,0h4A1.5,1.5,0,0,0,25,24,2.45,2.45,0,0,0,24.15,22.15ZM12.5,24a1,1,0,0,1,.33-0.72C14.17,22.12,15,19.52,15,16.5a3,3,0,0,1,6,0c0,3,.83,5.62,2.17,6.78a1,1,0,0,1,.33.72h-11Z"/></svg>