<svg id="Слой_1" data-name="Слой 1" xmlns="http://www.w3.org/2000/svg" viewBox="0 0 36 36"><defs><style>.cls-1{fill:#6bc9d2;}</style></defs><title>Icon desmark</title><path class="cls-1" d="M10.75,24.25A0.75,0.75,0,0,1,10,23.5a8.76,8.76,0,0,1,8-8.72V12.5a0.75,0.75,0,0,1,1.22-.58l6.5,5.25a0.75,0.75,0,0,1,0,1.17l-6.5,5.25A0.75,0.75,0,0,1,18,23V20.77c-4.21.18-6.5,1.85-6.5,2.73A0.75,0.75,0,0,1,10.75,24.25Zm8-5a0.75,0.75,0,0,1,.75.75v1.43l4.56-3.68L19.5,14.07V15.5a0.75,0.75,0,0,1-.75.75A7.26,7.26,0,0,0,12,20.78,13.82,13.82,0,0,1,18.75,19.25Z"/></svg>