<svg id="Слой_1" data-name="Слой 1" xmlns="http://www.w3.org/2000/svg" viewBox="0 0 36 36"><defs><style>.cls-1{fill:#004759;}</style></defs><title>Icon desmark</title><path class="cls-1" d="M26,18a1.5,1.5,0,0,0-1-1.42,32.48,32.48,0,0,0-.62-5.08A0.63,0.63,0,0,0,23.87,11l-0.14,0a0.62,0.62,0,0,0-.5.25A8.55,8.55,0,0,1,16.5,14.5h-3a3.5,3.5,0,1,0,0,7A4.67,4.67,0,0,0,15,24.9a0.35,0.35,0,0,0,.51,0l0.82-1a0.35,0.35,0,0,0,0-.47,2.68,2.68,0,0,1-.77-1.89h1a8.55,8.55,0,0,1,6.73,3.25,0.62,0.62,0,0,0,.5.25l0.14,0a0.62,0.62,0,0,0,.48-0.49A32.48,32.48,0,0,0,25,19.42,1.5,1.5,0,0,0,26,18ZM13.5,20a2,2,0,1,1,0-4h2v4h-2Zm9.67,2.49A10.21,10.21,0,0,0,17,20V16a10.21,10.21,0,0,0,6.17-2.47A30.77,30.77,0,0,1,23.17,22.49Z"/></svg>