<svg id="Слой_1" data-name="Слой 1" xmlns="http://www.w3.org/2000/svg" viewBox="0 0 18 18"><defs><style>.cls-1{fill:#fff;opacity:0.5;}</style></defs><title>Icon desmark</title><path class="cls-1" d="M17.1,4A0.08,0.08,0,0,0,17,4a6.51,6.51,0,0,1-1.52.46,3.37,3.37,0,0,0,1.19-1.66,0.08,0.08,0,0,0-.12-0.09,6.51,6.51,0,0,1-2,.78,3.38,3.38,0,0,0-5.75,3A9.32,9.32,0,0,1,2.15,3a0.08,0.08,0,0,0-.07,0A0.08,0.08,0,0,0,2,3a3.37,3.37,0,0,0,.81,4.33A3.23,3.23,0,0,1,1.65,7a0.08,0.08,0,0,0-.12.07v0A3.38,3.38,0,0,0,3.9,10.33a3.26,3.26,0,0,1-1.12,0,0.08,0.08,0,0,0-.08,0,0.08,0.08,0,0,0,0,.08,3.38,3.38,0,0,0,2.93,2.33A6.5,6.5,0,0,1,1.75,14,6.68,6.68,0,0,1,1,14a0.08,0.08,0,0,0-.05.15A9.44,9.44,0,0,0,6,15.6a9.36,9.36,0,0,0,9.46-9.44c0-.13,0-0.26,0-0.39a6.73,6.73,0,0,0,1.63-1.7A0.08,0.08,0,0,0,17.1,4Z"/></svg>