<svg id="Слой_1" data-name="Слой 1" xmlns="http://www.w3.org/2000/svg" viewBox="0 0 36 36"><defs><style>.cls-1{fill:#6bc9d2;}</style></defs><title>Icon desmark</title><path class="cls-1" d="M22,18.9a7.06,7.06,0,0,0,1-3.7C23,11.8,20.79,9,18,9s-5,2.76-5,6.16a7.05,7.05,0,0,0,1,3.7,7.2,7.2,0,0,0-4.38,6.39v0.56A1.12,1.12,0,0,0,10.71,27H25.29a1.12,1.12,0,0,0,1.12-1.12V25.28A7.2,7.2,0,0,0,22,18.9Zm-4-8.18c1.82,0,3.36,2.05,3.36,4.48S19.82,19.68,18,19.68s-3.36-2.05-3.36-4.48S16.18,10.72,18,10.72ZM11.27,25.28a5.63,5.63,0,0,1,3.82-5,4.3,4.3,0,0,0,5.81,0,5.63,5.63,0,0,1,3.82,5H11.27Z"/></svg>