<svg id="Слой_1" data-name="Слой 1" xmlns="http://www.w3.org/2000/svg" viewBox="0 0 18 18"><defs><style>.cls-1{opacity:0.5;}.cls-2{fill:#fff;}</style></defs><title>Icon desmark</title><g class="cls-1"><path class="cls-2" d="M15.16,9.09a1.61,1.61,0,0,0-1.38-1.24A43.19,43.19,0,0,0,9,7.67a43.21,43.21,0,0,0-4.78.18A1.61,1.61,0,0,0,2.84,9.09a13.48,13.48,0,0,0-.22,3,13.48,13.48,0,0,0,.22,3,1.61,1.61,0,0,0,1.38,1.24A43.18,43.18,0,0,0,9,16.5a43.18,43.18,0,0,0,4.78-.18,1.61,1.61,0,0,0,1.38-1.24,13.49,13.49,0,0,0,.22-3A13.47,13.47,0,0,0,15.16,9.09Zm-8.9.74H5.34v4.87H4.48V9.84H3.57V9H6.26v0.8Zm2.33,4.87H7.82V14.25a1.24,1.24,0,0,1-.88.52,0.47,0.47,0,0,1-.5-0.31,2.14,2.14,0,0,1-.07-0.63V10.49H7.14V13.6a2.36,2.36,0,0,0,0,.3,0.18,0.18,0,0,0,.18.18,0.68,0.68,0,0,0,.49-0.36V10.49H8.59v4.23Zm2.93-1.27a3.35,3.35,0,0,1-.08.85,0.61,0.61,0,0,1-.62.47A1.05,1.05,0,0,1,10,14.3v0.41H9.26V9H10v1.85a1,1,0,0,1,.8-0.46,0.61,0.61,0,0,1,.62.48,3.21,3.21,0,0,1,.08.85v1.68Zm2.91-.71H12.89v0.75c0,0.39.13,0.59,0.39,0.59a0.33,0.33,0,0,0,.34-0.31,4.88,4.88,0,0,0,0-.52h0.79v0.11c0,0.25,0,.42,0,0.49a1.09,1.09,0,0,1-.18.46,1.07,1.07,0,0,1-.93.46,1.11,1.11,0,0,1-.93-0.43,1.63,1.63,0,0,1-.25-1V11.86a1.63,1.63,0,0,1,.24-1,1.1,1.1,0,0,1,.92-0.43,1.07,1.07,0,0,1,.91.43,1.65,1.65,0,0,1,.24,1v0.87Zm-1.16-1.61q-0.39,0-.39.59V12.1h0.77V11.71C13.66,11.32,13.53,11.12,13.27,11.12Zm-2.86,0a0.55,0.55,0,0,0-.38.19v2.58a0.55,0.55,0,0,0,.38.19c0.22,0,.34-0.19.34-0.57V11.7C10.75,11.32,10.63,11.12,10.41,11.12Zm0.43-3.84a1.25,1.25,0,0,0,.89-0.52V7.23h0.78V3H11.73V6.22a0.68,0.68,0,0,1-.49.36,0.18,0.18,0,0,1-.18-0.18,1.82,1.82,0,0,1,0-.3V3H10.27V6.33a2.15,2.15,0,0,0,.07.64A0.48,0.48,0,0,0,10.84,7.28ZM5.42,4.91V7.23H6.28V4.91l1-3.41H6.45L5.86,3.75,5.24,1.5H4.34l0.55,1.6A14,14,0,0,1,5.42,4.91ZM8.48,7.28a1.07,1.07,0,0,0,.91-0.44,1.66,1.66,0,0,0,.24-1V4.35a1.67,1.67,0,0,0-.24-1A1.06,1.06,0,0,0,8.48,2.9a1.06,1.06,0,0,0-.91.44,1.65,1.65,0,0,0-.24,1v1.5a1.65,1.65,0,0,0,.24,1A1.06,1.06,0,0,0,8.48,7.28ZM8.11,4.19c0-.4.12-0.59,0.37-0.59s0.37,0.2.37,0.59V6c0,0.4-.12.59-0.37,0.59S8.11,6.38,8.11,6V4.19Z"/></g></svg>